<svg xmlns="http://www.w3.org/2000/svg" viewBox="0 0 240 24" fill="none" stroke="currentColor" stroke-width="1.5" stroke-linecap="square" stroke-linejoin="miter">
  
  <path d="M0 12 L12 12 L12 4 L28 4 L28 20 L4 20 L4 8 L20 8 L20 16 L36 16 L36 4 L52 4 L52 20 L28 20 M52 12 L64 12 L64 4 L80 4 L80 20 L56 20 L56 8 L72 8 L72 16 L88 16 L88 4 L104 4 L104 20 L80 20 M104 12 L116 12 L116 4 L132 4 L132 20 L108 20 L108 8 L124 8 L124 16 L140 16 L140 4 L156 4 L156 20 L132 20 M156 12 L168 12 L168 4 L184 4 L184 20 L160 20 L160 8 L176 8 L176 16 L192 16 L192 4 L208 4 L208 20 L184 20 M208 12 L220 12 L220 4 L236 4 L236 20 L212 20 L212 8 L228 8 L228 16 L240 16"></path>
</svg>